<mxfile host="app.diagrams.net" modified="2024-04-05T15:10:25.714Z" agent="Mozilla/5.0 (X11; Linux x86_64; rv:124.0) Gecko/20100101 Firefox/124.0" etag="0F8_z73GJGyHHZoKjQWD" version="24.2.2" type="github">
  <diagram id="R2lEEEUBdFMjLlhIrx00" name="Page-1">
    <mxGraphModel dx="1114" dy="612" grid="1" gridSize="10" guides="1" tooltips="1" connect="1" arrows="1" fold="1" page="1" pageScale="1" pageWidth="850" pageHeight="1100" math="0" shadow="0" extFonts="Permanent Marker^https://fonts.googleapis.com/css?family=Permanent+Marker">
      <root>
        <mxCell id="0" />
        <mxCell id="1" parent="0" />
        <mxCell id="x8ZEyGMmbt7tFjFz_5fG-1" value="&lt;div&gt;&lt;b&gt;&lt;font style=&quot;font-size: 19px;&quot;&gt;user&lt;/font&gt;&lt;/b&gt;&lt;/div&gt;" style="rounded=1;arcSize=9;whiteSpace=wrap;html=1;align=center;" vertex="1" parent="1">
          <mxGeometry x="120" y="170" width="110" height="50" as="geometry" />
        </mxCell>
        <mxCell id="x8ZEyGMmbt7tFjFz_5fG-2" value="&lt;div&gt;First_Name&lt;/div&gt;" style="ellipse;whiteSpace=wrap;html=1;align=center;" vertex="1" parent="1">
          <mxGeometry x="10" y="150" width="70" height="40" as="geometry" />
        </mxCell>
        <mxCell id="x8ZEyGMmbt7tFjFz_5fG-13" style="edgeStyle=none;curved=1;rounded=0;orthogonalLoop=1;jettySize=auto;html=1;exitX=1;exitY=0.5;exitDx=0;exitDy=0;entryX=0;entryY=0.5;entryDx=0;entryDy=0;fontSize=12;startSize=8;endSize=8;endArrow=none;endFill=0;" edge="1" parent="1" source="x8ZEyGMmbt7tFjFz_5fG-3" target="x8ZEyGMmbt7tFjFz_5fG-1">
          <mxGeometry relative="1" as="geometry" />
        </mxCell>
        <mxCell id="x8ZEyGMmbt7tFjFz_5fG-3" value="&lt;div&gt;User_ID&lt;/div&gt;" style="ellipse;whiteSpace=wrap;html=1;align=center;" vertex="1" parent="1">
          <mxGeometry x="20" y="200" width="70" height="40" as="geometry" />
        </mxCell>
        <mxCell id="x8ZEyGMmbt7tFjFz_5fG-16" style="edgeStyle=none;curved=1;rounded=0;orthogonalLoop=1;jettySize=auto;html=1;exitX=0.5;exitY=1;exitDx=0;exitDy=0;entryX=1;entryY=0.25;entryDx=0;entryDy=0;fontSize=12;startSize=8;endSize=8;endArrow=none;endFill=0;" edge="1" parent="1" source="x8ZEyGMmbt7tFjFz_5fG-4" target="x8ZEyGMmbt7tFjFz_5fG-1">
          <mxGeometry relative="1" as="geometry" />
        </mxCell>
        <mxCell id="x8ZEyGMmbt7tFjFz_5fG-4" value="&lt;div&gt;Phone_num&lt;/div&gt;" style="ellipse;whiteSpace=wrap;html=1;align=center;" vertex="1" parent="1">
          <mxGeometry x="230" y="60" width="100" height="40" as="geometry" />
        </mxCell>
        <mxCell id="x8ZEyGMmbt7tFjFz_5fG-11" style="edgeStyle=none;curved=1;rounded=0;orthogonalLoop=1;jettySize=auto;html=1;exitX=1;exitY=1;exitDx=0;exitDy=0;entryX=0.25;entryY=0;entryDx=0;entryDy=0;fontSize=12;startSize=8;endSize=8;endArrow=none;endFill=0;" edge="1" parent="1" source="x8ZEyGMmbt7tFjFz_5fG-5" target="x8ZEyGMmbt7tFjFz_5fG-1">
          <mxGeometry relative="1" as="geometry" />
        </mxCell>
        <mxCell id="x8ZEyGMmbt7tFjFz_5fG-5" value="&lt;div&gt;Last_Name&lt;/div&gt;" style="ellipse;whiteSpace=wrap;html=1;align=center;" vertex="1" parent="1">
          <mxGeometry x="10" y="100" width="70" height="40" as="geometry" />
        </mxCell>
        <mxCell id="x8ZEyGMmbt7tFjFz_5fG-12" style="edgeStyle=none;curved=1;rounded=0;orthogonalLoop=1;jettySize=auto;html=1;exitX=1;exitY=1;exitDx=0;exitDy=0;entryX=0.5;entryY=0;entryDx=0;entryDy=0;fontSize=12;startSize=8;endSize=8;endArrow=none;endFill=0;" edge="1" parent="1" source="x8ZEyGMmbt7tFjFz_5fG-6" target="x8ZEyGMmbt7tFjFz_5fG-1">
          <mxGeometry relative="1" as="geometry" />
        </mxCell>
        <mxCell id="x8ZEyGMmbt7tFjFz_5fG-6" value="&lt;div&gt;Username&lt;/div&gt;" style="ellipse;whiteSpace=wrap;html=1;align=center;" vertex="1" parent="1">
          <mxGeometry x="90" y="110" width="70" height="40" as="geometry" />
        </mxCell>
        <mxCell id="x8ZEyGMmbt7tFjFz_5fG-15" style="edgeStyle=none;curved=1;rounded=0;orthogonalLoop=1;jettySize=auto;html=1;exitX=0.5;exitY=1;exitDx=0;exitDy=0;entryX=0.75;entryY=0;entryDx=0;entryDy=0;fontSize=12;startSize=8;endSize=8;endArrow=none;endFill=0;" edge="1" parent="1" source="x8ZEyGMmbt7tFjFz_5fG-7" target="x8ZEyGMmbt7tFjFz_5fG-1">
          <mxGeometry relative="1" as="geometry" />
        </mxCell>
        <mxCell id="x8ZEyGMmbt7tFjFz_5fG-7" value="Password" style="ellipse;whiteSpace=wrap;html=1;align=center;" vertex="1" parent="1">
          <mxGeometry x="180" y="100" width="70" height="40" as="geometry" />
        </mxCell>
        <mxCell id="x8ZEyGMmbt7tFjFz_5fG-14" style="edgeStyle=none;curved=1;rounded=0;orthogonalLoop=1;jettySize=auto;html=1;exitX=0.5;exitY=1;exitDx=0;exitDy=0;entryX=0.75;entryY=0;entryDx=0;entryDy=0;fontSize=12;startSize=8;endSize=8;endArrow=none;endFill=0;" edge="1" parent="1" source="x8ZEyGMmbt7tFjFz_5fG-8" target="x8ZEyGMmbt7tFjFz_5fG-1">
          <mxGeometry relative="1" as="geometry" />
        </mxCell>
        <mxCell id="x8ZEyGMmbt7tFjFz_5fG-8" value="&lt;div&gt;Email&lt;/div&gt;" style="ellipse;whiteSpace=wrap;html=1;align=center;" vertex="1" parent="1">
          <mxGeometry x="120" y="60" width="70" height="40" as="geometry" />
        </mxCell>
        <mxCell id="x8ZEyGMmbt7tFjFz_5fG-10" style="edgeStyle=none;curved=1;rounded=0;orthogonalLoop=1;jettySize=auto;html=1;exitX=1;exitY=0.5;exitDx=0;exitDy=0;entryX=0;entryY=0.25;entryDx=0;entryDy=0;fontSize=12;startSize=8;endSize=8;endArrow=none;endFill=0;" edge="1" parent="1" source="x8ZEyGMmbt7tFjFz_5fG-2" target="x8ZEyGMmbt7tFjFz_5fG-1">
          <mxGeometry relative="1" as="geometry" />
        </mxCell>
      </root>
    </mxGraphModel>
  </diagram>
</mxfile>
